PathFileType	3	(X/Y/Z)	D:\minhoCalibration\240510\subject3_KPNP\preferred\preferred10.trc
DataRate	CameraRate	NumFrames	NumMarkers	Units	OrigDataRate	OrigDataStartFrame	OrigNumFrames
200.0	200.0	33	10	mm	200.0	180	121	
Frame#	Time	Left_Ankle_Outer1			Left_Ankle_Inner1			Left_Knee_Outer1			Left_Knee_Inner1			Left_Wrist1			Right_Wrist1			Right_Knee_Inner1			Right_Knee_Outer1			Right_Ankle_Inner1			Right_Ankle_Outer1			
		X1	Y1	Z1	X2	Y2	Z2	X3	Y3	Z3	X4	Y4	Z4	X5	Y5	Z5	X6	Y6	Z6	X7	Y7	Z7	X8	Y8	Z8	X9	Y9	Z9	X10	Y10	Z10	
180	0.89	-326.78119	124.55278	-502.60544	-378.18393	143.07509	-480.58887	-152.55768	520.0614	-441.14203	-219.83003	541.19922	-365.30716	-166.20494	887.18445	-694.8548	-357.55286	1106.2593	-454.97818	-287.57947	968.54193	-67.775581	-309.44031	1070.0353	-106.69742	-634.24182	884.03931	178.23373	-653.30835	982.20166	184.44936
181	0.895	-327.12598	124.22069	-502.80112	-378.76721	142.47874	-480.87582	-154.06474	520.03345	-439.85226	-222.16364	541.18158	-364.52515	-168.41679	884.82159	-694.14874	-356.53192	1107.6445	-458.13043	-284.8801	973.8291	-71.322136	-306.01056	1072.5424	-112.08102	-598.70679	910.91974	222.18336	-616.62152	1010.4385	222.11397
182	0.9	-327.504	123.92065	-503.05212	-379.41379	142.01588	-481.12781	-155.45181	519.97406	-438.73831	-224.43803	541.1532	-364.6185	-170.73485	882.73926	-692.65112	-356.78287	1108.59	-461.07883	-283.78326	977.96039	-74.452606	-304.24619	1073.9344	-116.62037	-558.38873	937.29266	260.5155	-575.50629	1037.9513	254.31987
183	0.905	-328.88019	123.22923	-502.6257	-380.18173	141.41478	-481.38644	-156.97348	520.02734	-437.59393	-226.73753	541.08594	-363.96707	-172.79276	881.14783	-690.54938	-357.27875	1109.7421	-463.63107	-283.8772	981.18481	-76.408997	-303.6727	1074.6033	-120.20268	-509.81815	964.58063	292.98547	-531.25305	1064.0533	280.02356
184	0.91	-329.21545	123.31712	-503.17209	-381.1669	140.93694	-481.49716	-158.54012	520.09619	-436.3988	-213.60953	548.61945	-352.92242	-174.72928	880.14258	-687.67975	-358.77072	1111.3374	-465.14267	-284.34216	984.19946	-77.604462	-304.69507	1074.6232	-122.77439	-466.80191	988.16809	312.20865	-485.29828	1088.1915	299.05023
185	0.915	-330.3833	123.1554	-503.06659	-382.41412	140.4373	-481.44385	-160.02634	520.27716	-435.20447	-230.91986	540.88275	-362.34219	-176.5869	879.66785	-684.17371	-360.9476	1113.3423	-465.55411	-284.99442	987.18591	-79.071297	-307.96704	1074.2454	-124.73959	-419.30032	1007.4961	325.31021	-435.65021	1107.3792	309.64117
186	0.92	-332.4975	122.23819	-503.01825	-383.75702	139.90883	-481.40692	-161.50105	520.29749	-434.06717	-233.31761	540.23669	-362.53082	-178.10532	879.77185	-680.04364	-363.38687	1115.5044	-465.32104	-285.23206	989.8111	-81.060226	-314.5975	1075.0505	-125.22249	-379.62399	1031.0155	329.30231	-396.59781	1129.448	305.43909
187	0.925	-333.24786	122.65617	-503.43799	-385.25037	139.35272	-481.35812	-162.90854	520.2876	-432.96472	-235.54697	540.36938	-360.68826	-179.34296	880.43225	-675.37616	-366.48273	1117.5374	-464.3486	-284.39462	991.8902	-83.190048	-321.52209	1080.8102	-126.27974	-355.81003	1043.3356	327.96353	-375.81677	1141.0344	301.43094
188	0.93	-335.21878	122.16396	-503.52539	-387.00302	138.80823	-481.26105	-164.30206	520.2229	-431.76254	-237.16748	539.49725	-360.43613	-180.25558	881.58002	-670.32483	-369.74106	1119.217	-462.92499	-281.12064	992.83899	-84.76899	-329.24628	1085.7135	-126.90303	-353.07584	1055.5406	332.74524	-368.14041	1149.8557	297.29041
189	0.935	-336.67682	121.64697	-503.9776	-388.47739	138.11954	-481.51413	-165.80382	519.82471	-430.51776	-238.65596	539.23901	-358.32129	-180.89238	882.7962	-664.94708	-372.80139	1120.3571	-461.29065	-276.0358	994.75854	-85.000519	-334.59329	1089.274	-127.45923	-351.09262	1056.2723	326.5625	-368.27951	1156.2678	299.06946
190	0.94	-339.25131	120.26176	-503.30704	-389.80045	137.28676	-481.81223	-167.52336	519.40521	-429.05466	-240.17978	538.27411	-356.58215	-180.77155	884.18457	-659.52271	-376.33533	1120.5957	-459.50635	-270.26108	1000.5715	-84.702263	-335.57806	1093.1136	-128.20621	-348.25635	1051.0748	325.27017	-371.07166	1151.1156	302.14612
191	0.945	-339.89957	119.82934	-504.03351	-391.00723	136.33273	-482.23938	-169.39995	518.80328	-427.73502	-241.53752	536.63721	-355.642	-180.54881	884.99677	-654.36902	-379.94235	1120.2017	-457.63684	-264.2673	1008.4686	-84.319038	-330.44492	1097.8896	-128.78513	-350.12933	1042.1244	322.91428	-375.40652	1142.6578	305.27679
192	0.95	-340.10855	119.66259	-504.39673	-392.01871	135.24835	-482.77231	-171.71712	518.22693	-426.07596	-243.12465	535.82324	-352.60049	-179.79694	886.03857	-649.66864	-383.66092	1119.2593	-455.57382	-259.61789	1016.8483	-84.680885	-321.69772	1102.1594	-128.04224	-349.19144	1037.2577	324.10242	-379.94266	1134.3162	307.83328
193	0.955	-341.17673	118.35635	-504.46176	-392.90698	134.11768	-483.57471	-174.1734	517.38287	-424.45325	-244.82903	533.98871	-351.43875	-179.31787	886.73071	-645.47437	-387.13113	1117.8862	-453.26215	-257.14651	1024.6149	-85.947121	-312.2001	1103.5477	-126.34693	-353.40259	1027.8966	321.57275	-385.14722	1125.6453	309.79608
194	0.96	-341.99445	117.45533	-504.57852	-393.75476	132.94168	-484.51462	-176.75644	516.586	-422.6857	-247.51329	532.6203	-350.58725	-179.04411	887.23969	-641.86139	-390.49481	1116.1914	-450.8367	-257.18622	1029.5974	-86.617355	-304.28268	1103.8916	-126.60888	-356.48828	1017.011	318.04852	-387.11456	1115.5762	310.85999
195	0.965	-342.3273	116.81831	-505.16391	-394.57251	131.66197	-485.31485	-179.22452	515.73914	-420.9614	-250.658	531.35596	-350.54874	-178.85405	887.534	-639.11487	-393.80164	1114.3003	-448.3678	-260.54068	1030.1021	-85.249641	-302.09924	1102.5876	-128.48964	-357.7598	1007.9637	316.22128	-387.09451	1106.9907	313.33319
196	0.97	-343.02798	115.9256	-505.5061	-395.49805	130.51761	-486.23334	-181.62325	514.93201	-419.21542	-254.50125	531.04437	-348.9614	-178.29639	887.76202	-637.27899	-397.19861	1112.3647	-445.57443	-263.87643	1027.094	-83.451401	-304.49792	1100.1057	-129.11896	-355.97495	1000.8685	315.91711	-385.69089	1099.884	314.89505
197	0.975	-343.68253	115.04756	-506.04523	-396.44131	129.47949	-486.8815	-183.8844	514.28357	-417.6384	-258.38696	530.32202	-349.97501	-178.43416	887.151	-635.39789	-400.07645	1110.1217	-443.64212	-266.6142	1022.4844	-82.483429	-310.4798	1098.4044	-127.76469	-353.35898	994.6532	316.6116	-385.37854	1093.5995	316.9769
198	0.98	-343.94174	114.5677	-506.85602	-397.41812	128.60075	-487.54437	-186.23706	513.76605	-416.15018	-262.27274	529.64612	-350.67767	-177.75986	886.43835	-634.12347	-402.52399	1107.287	-441.8978	-268.87537	1017.377	-82.311646	-319.42737	1096.5806	-124.30976	-349.49582	988.50793	318.00549	-386.04031	1086.9506	319.18817
199	0.985	-344.55713	114.30566	-507.02579	-398.31537	127.76244	-487.88293	-188.36118	513.40289	-414.95245	-265.94495	529.64618	-350.07922	-177.23029	885.61865	-632.63568	-404.59329	1104.8909	-440.78418	-270.99228	1012.2521	-82.137276	-329.17773	1091.8718	-120.54154	-343.61914	981.63324	319.39136	-386.51175	1078.4729	320.62817
200	0.99	-346.35855	113.0389	-506.6282	-399.23874	127.22406	-488.16064	-190.25981	513.33862	-413.89453	-269.07458	529.37573	-350.62503	-176.80496	884.82367	-631.02325	-406.5202	1102.9225	-440.33121	-273.34506	1007.0978	-81.828766	-338.38013	1084.8452	-117.34594	-337.55457	974.43884	320.44547	-387.22409	1068.8663	321.83893
201	0.995	-346.51877	113.55424	-506.93936	-400.21426	126.62104	-488.35391	-192.0014	513.24469	-413.13	-272.15283	528.94806	-352.28525	-176.27318	884.28827	-629.67346	-408.52365	1101.8116	-440.4075	-275.85254	1001.4937	-81.621025	-346.52637	1076.8706	-114.30119	-333.24701	966.60266	321.25629	-389.09976	1058.4994	323.50507
202	1	-347.05798	113.33488	-507.40582	-401.10342	126.05622	-488.61273	-193.73201	513.38403	-412.53937	-274.71323	529.10632	-352.94403	-175.94669	883.95673	-628.36102	-409.92227	1100.8323	-441.43356	-278.53815	995.11737	-81.434937	-353.60272	1068.9089	-111.60841	-330.35837	956.83527	321.43805	-391.06812	1046.545	325.19247
203	1.005	-349.056	112.13277	-506.75	-401.98126	125.50357	-488.85388	-195.57478	513.80267	-412.05701	-277.19098	529.81958	-352.25464	-175.96028	883.81073	-626.93994	-412.46176	1100.3666	-442.52866	-281.75342	987.67511	-81.074631	-360.10257	1060.7732	-109.32159	-329.01703	945.06897	321.12408	-393.33411	1033.0634	326.81812
204	1.01	-349.90128	111.62786	-506.92432	-402.80258	124.80767	-489.15915	-197.17889	514.12714	-412.02307	-280.14639	530.29315	-354.16034	-175.72725	883.88837	-625.70172	-415.29373	1099.8103	-443.80066	-285.61737	979.30481	-80.522507	-365.18448	1052.7627	-107.85745	-329.44968	931.01465	320.15012	-395.65796	1018.2025	328.46414
205	1.015	-350.6839	111.01195	-507.16888	-403.63046	124.26537	-489.53522	-198.68677	514.5354	-412.26651	-281.3551	530.64233	-355.12515	-175.6691	884.30255	-624.29156	-418.23776	1099.7302	-444.86472	-289.92587	970.42004	-79.938431	-369.32556	1045.2261	-106.16382	-326.52115	918.67322	319.9765	-397.35043	1001.9005	329.61423
206	1.02	-350.71164	110.55266	-508.24344	-404.3576	123.58888	-489.82501	-199.98711	515.27728	-412.68469	-283.08463	531.06238	-355.35464	-175.6927	884.87854	-622.83966	-421.87723	1099.4271	-445.73901	-294.25351	961.5213	-79.480042	-372.15234	1037.192	-104.37266	-324.53494	905.00494	319.54199	-399.72345	984.62701	330.40045
207	1.025	-352.07166	109.64347	-507.75665	-405.0278	122.85881	-490.24176	-201.38205	515.93719	-413.26193	-284.71112	531.17078	-356.60025	-175.71159	885.815	-621.30884	-424.33871	1098.7856	-446.74335	-298.32617	953.1554	-79.031853	-374.82434	1028.6886	-102.2719	-321.76645	890.71637	318.83237	-401.89145	966.27069	330.44348
208	1.03	-351.64453	109.52853	-509.12357	-405.52258	122.23923	-490.68024	-202.36395	516.229	-414.32483	-286.13354	531.0368	-357.97528	-175.2298	887.17505	-619.97253	-427.28711	1097.5929	-447.30896	-301.89871	945.42627	-78.501022	-376.79974	1020.2516	-100.57418	-315.06757	882.7467	336.50156	-404.41562	947.28662	330.10489
209	1.035	-353.04117	108.31966	-508.8656	-406.00497	121.5285	-491.13196	-203.26175	516.55505	-415.51465	-287.44089	530.92261	-359.36212	-175.03352	888.53198	-618.42401	-430.23221	1096.2542	-447.95798	-304.64227	938.1756	-78.416664	-380.56754	1012.3499	-98.377319	-307.98257	874.47699	354.38016	-407.45023	927.65826	329.30832
210	1.04	-352.18567	108.55299	-510.06311	-406.41824	120.70837	-491.72498	-204.11797	516.56378	-416.94073	-288.64102	530.44012	-360.92902	-174.46172	890.29297	-617.03955	-433.08368	1094.6161	-448.27142	-307.94827	930.77802	-77.691444	-384.21948	1004.1847	-97.093582	-321.27649	843.0686	313.06403	-410.56711	907.36938	327.71765
211	1.045	-353.40417	107.06248	-509.84097	-406.64905	119.89021	-492.40311	-204.94032	516.3208	-418.44888	-289.69153	529.79083	-362.34756	-174.01709	892.02234	-615.4314	-435.98135	1092.7207	-448.39319	-310.43631	923.07947	-77.829124	-388.53058	995.54901	-96.019852	-323.87396	824.53412	310.53824	-414.63443	886.51941	325.39014
212	1.05	-352.27008	106.90587	-511.36053	-406.7796	118.94789	-493.03772	-205.88026	515.91833	-420.03937	-290.48605	528.79425	-363.9075	-173.44916	893.84271	-613.79706	-439.11987	1090.4515	-448.38745	-312.99057	915.01074	-78.190453	-393.53787	986.68976	-94.675652	-326.67224	805.60248	306.88162	-419.10376	865.24927	322.33841
